<svg xmlns="http://www.w3.org/2000/svg" viewBox="0 0 1200 1200" role="img" aria-label="Air fryer oven appliance">
  <rect width="1200" height="1200" fill="#fff"/>
  <ellipse cx="600" cy="1008" rx="360" ry="48" fill="#d8d8d8" opacity=".58"/>
  <linearGradient id="body" x1="0" x2="1">
    <stop offset="0" stop-color="#f7f7f7"/>
    <stop offset=".15" stop-color="#aeb3b8"/>
    <stop offset=".35" stop-color="#ffffff"/>
    <stop offset=".65" stop-color="#c6cbd0"/>
    <stop offset=".85" stop-color="#70757b"/>
    <stop offset="1" stop-color="#f8f8f8"/>
  </linearGradient>
  <linearGradient id="glass" x1="0" y1="0" x2="1" y2="1">
    <stop offset="0" stop-color="#292929"/>
    <stop offset=".52" stop-color="#050505"/>
    <stop offset="1" stop-color="#444"/>
  </linearGradient>
  <rect x="210" y="260" width="780" height="660" rx="84" fill="url(#body)" stroke="#6c7075" stroke-width="10"/>
  <rect x="298" y="360" width="604" height="420" rx="34" fill="url(#glass)" stroke="#222" stroke-width="8"/>
  <rect x="338" y="407" width="524" height="324" rx="18" fill="#151515"/>
  <path d="M350 438h500M350 520h500M350 602h500M350 684h500" stroke="#8b8f94" stroke-width="10" opacity=".55"/>
  <path d="M300 316h600" stroke="#fff" stroke-width="28" opacity=".35"/>
  <circle cx="408" cy="840" r="42" fill="#111" stroke="#e5e5e5" stroke-width="5"/>
  <circle cx="522" cy="840" r="42" fill="#111" stroke="#e5e5e5" stroke-width="5"/>
  <rect x="630" y="816" width="220" height="50" rx="25" fill="#111"/>
  <rect x="676" y="835" width="128" height="12" rx="6" fill="#e7e7e7" opacity=".88"/>
  <rect x="332" y="936" width="112" height="42" rx="18" fill="#4d5054"/>
  <rect x="756" y="936" width="112" height="42" rx="18" fill="#4d5054"/>
  <path d="M858 382l-178 336" stroke="#fff" stroke-width="36" opacity=".18"/>
</svg>
