<svg xmlns="http://www.w3.org/2000/svg" viewBox="0 0 1200 1200" role="img" aria-label="Coffee appliance program">
  <rect width="1200" height="1200" fill="#fff"/>
  <ellipse cx="600" cy="1005" rx="330" ry="46" fill="#d7d7d7" opacity=".58"/>
  <linearGradient id="steel" x1="0" x2="1">
    <stop offset="0" stop-color="#f7f7f7"/>
    <stop offset=".18" stop-color="#9da2a7"/>
    <stop offset=".42" stop-color="#ffffff"/>
    <stop offset=".68" stop-color="#c6cbd0"/>
    <stop offset=".86" stop-color="#676c72"/>
    <stop offset="1" stop-color="#f6f6f6"/>
  </linearGradient>
  <linearGradient id="black" x1="0" x2="1">
    <stop offset="0" stop-color="#2a2a2a"/>
    <stop offset=".48" stop-color="#060606"/>
    <stop offset="1" stop-color="#353535"/>
  </linearGradient>
  <rect x="382" y="178" width="436" height="182" rx="46" fill="url(#steel)" stroke="#666b70" stroke-width="8"/>
  <rect x="318" y="330" width="564" height="160" rx="40" fill="url(#black)"/>
  <rect x="388" y="490" width="424" height="274" rx="32" fill="url(#steel)" stroke="#6e7378" stroke-width="8"/>
  <rect x="458" y="548" width="284" height="164" rx="22" fill="#0f0f0f" opacity=".92"/>
  <path d="M512 490v-78h176v78" fill="none" stroke="#171717" stroke-width="30" stroke-linecap="round"/>
  <rect x="510" y="752" width="180" height="152" rx="28" fill="#111"/>
  <path d="M690 790h74c52 0 80 30 80 72s-28 72-80 72h-74" fill="none" stroke="#111" stroke-width="34" stroke-linecap="round"/>
  <rect x="306" y="900" width="588" height="58" rx="29" fill="#4e5257"/>
  <circle cx="438" cy="410" r="24" fill="#e9e9e9"/>
  <circle cx="516" cy="410" r="24" fill="#e9e9e9"/>
  <rect x="604" y="394" width="170" height="34" rx="17" fill="#e9e9e9" opacity=".92"/>
  <path d="M446 220h308" stroke="#fff" stroke-width="24" opacity=".34"/>
  <path d="M742 520l-120 190" stroke="#fff" stroke-width="32" opacity=".18"/>
</svg>
